<?xml version="1.0" encoding="utf-8"?>
<svg xmlns="http://www.w3.org/2000/svg" id="Layer_1" data-name="Layer 1" viewBox="0 0 200 200"><defs><style>.cls-1{fill-rule:evenodd;}</style></defs><title>jwt-logo-3</title><g id="Page-1"><g id="jwt_logo" data-name="jwt logo"><g id="Group"><g id="Shape"><path class="cls-1" d="M28.22,72.49V111.8A15.76,15.76,0,0,1,12.5,127.51v-7.86a7.81,7.81,0,0,0,7.86-7.75V72.49Zm143.54,7.86H189.5V72.49H146.26v7.86h17.63v47.16h7.87Zm-49.2-7.86V111.8a7.86,7.86,0,0,1-15.72,0V88.21a15.73,15.73,0,0,0-31.45,0V111.8a7.86,7.86,0,0,1-15.72,0V72.49H51.81V111.8a15.73,15.73,0,0,0,31.45,0V88.21a7.86,7.86,0,0,1,15.72,0h0V111.8a15.73,15.73,0,0,0,31.45,0V72.49Z"/></g></g></g></g></svg>