<?xml version="1.0" encoding="utf-8"?>
<svg version="1.1" id="layer" xmlns="http://www.w3.org/2000/svg" xmlns:xlink="http://www.w3.org/1999/xlink" x="0px" y="0px"
     viewBox="0 0 652 652" style="enable-background:new 0 0 652 652;" xml:space="preserve">
<style type="text/css">
	.st0{fill:#003764;}
</style>
  <g>
	<path class="st0" d="M35.1,316.7l-21.6-18.9V79.2L35.1,72V316.7z M164,203.7H35.1v21.6H164V203.7z M627.7,311.3L541,224.6
		c37.6-5,66.6-37.2,66.6-76c0-42.3-34.4-76.7-76.7-76.7h-51.5l10.2,21.6H531c30.4,0,55.2,24.7,55.2,55.1s-24.7,55.1-55.2,55.1h-41.3
		L626.9,341L627.7,311.3z M350.6,225.2h55.1c42.3,0,76.7-34.4,76.7-76.7S448,71.9,405.7,71.9H353l6.5,21.6h46.2
		c30.4,0,55.2,24.7,55.2,55.1s-24.7,55.1-55.2,55.1H329v368.3l21.6-20.3V225.2z M218.2,211.8l110.2-110.2l-7.1-23.4L196.6,202.8
		v254.7l21.6,18.6V211.8z"/>
</g>
</svg>