<?xml version="1.0" encoding="UTF-8"?>
<svg viewBox="0 0 1238 472" version="1.1" xmlns="http://www.w3.org/2000/svg">
  <g id="Page-1" stroke="none" stroke-width="1" fill="none" fill-rule="evenodd">
    <g fill="#E83838">
      <path d="M200.6338,442.6682 C181.5258,462.4132 156.0488,471.9672 122.2908,471.9672 C86.6228,471.9672 47.1328,462.4132 14.0128,445.2162 C2.5478,439.4832 -0.0002,437.5732 -0.0002,433.1142 C-0.0002,430.5662 0.6368,429.2932 1.9108,425.4712 L16.5598,386.6182 C18.4708,382.1602 20.3818,380.2492 22.9298,380.2492 C24.2038,380.2492 26.1138,380.8862 28.6618,382.1602 C62.4198,400.6302 91.0818,409.5482 115.2848,409.5482 C137.5768,409.5482 152.2268,396.1722 152.2268,376.4272 C152.2268,358.5932 144.5838,352.2242 103.1828,336.3002 C62.4198,321.0142 48.4068,312.7342 36.9418,301.9062 C20.3818,285.9832 11.4648,264.3272 11.4648,239.4872 C11.4648,178.3412 58.5978,135.6672 124.8388,135.6672 C164.9658,135.6672 222.2898,152.8642 222.2898,164.9662 C222.2898,166.8762 221.6528,169.4242 220.3788,171.9722 L204.4548,208.2772 C202.5448,212.0992 200.6338,214.0092 198.0858,214.0092 C196.8118,214.0092 194.9018,213.3732 192.9908,212.7352 C168.7868,201.9082 146.4948,196.1752 128.6598,196.1752 C102.5458,196.1752 87.8968,207.6402 87.8968,228.6592 C87.8968,245.8562 94.9028,252.2252 129.9338,265.6012 C177.0678,284.0722 190.4428,291.0782 203.8188,303.8172 C220.3788,320.3772 229.9328,343.3072 229.9328,368.7842 C229.9328,396.1722 219.1048,423.5602 200.6338,442.6682" id="Fill-1"></path>
      <path d="M349.0371,369.4211 C349.0371,394.2611 366.8711,413.3691 389.8011,413.3691 C406.9981,413.3691 422.9211,405.0891 438.2081,388.5291 L438.2081,318.4661 C374.5151,318.4661 349.0371,332.4791 349.0371,369.4211 M525.4681,449.6741 L475.7871,469.4201 C473.8761,470.6931 470.0551,471.3301 468.1431,471.3301 C462.4111,471.3301 456.0421,459.2291 449.0361,433.7511 C423.5581,459.8651 400.6291,470.0561 367.5081,470.0561 C308.9111,470.0561 271.9681,432.4771 271.9681,373.8791 C271.9681,317.1921 302.5411,284.0721 366.8711,271.3341 C383.4321,268.1491 403.1771,266.2381 438.2081,265.6011 L438.2081,245.8561 C438.2081,209.5511 428.0171,198.0861 396.1701,198.0861 C377.0621,198.0861 352.8591,203.8181 324.8341,214.6471 C322.2861,215.9211 319.7381,216.5571 317.8281,216.5571 C314.6431,216.5571 312.7321,214.6471 311.4581,210.1881 L298.0821,171.9721 C297.4461,170.0611 296.8081,166.8771 296.8081,164.9661 C296.8081,151.5901 354.7691,135.6671 405.7241,135.6671 C456.0421,135.6671 490.4361,152.2271 505.0861,184.7111 C511.4551,198.0861 514.0031,213.3731 514.0031,237.5761 L514.0031,367.5101 C514.0031,395.5351 517.8241,414.0061 528.6521,436.2991 C529.9261,438.8471 530.5631,441.3941 530.5631,443.3051 C530.5631,445.8531 528.6521,448.4001 525.4681,449.6741" id="Fill-4"></path>
      <path d="M673.8711,461.1394 L615.9101,461.1394 C606.3561,461.1394 605.0831,459.8654 605.0831,450.3114 L605.0831,236.3024 C605.0831,203.8184 602.5351,190.4434 593.6181,167.5134 C592.3441,164.9664 591.7071,162.4184 591.7071,160.5074 C591.7071,157.3224 594.2551,154.1384 598.7141,152.8644 L650.3051,135.6664 C653.4891,135.0304 655.4001,134.3934 656.6741,134.3934 C663.6811,134.3934 671.3231,152.2274 677.0561,180.2524 C712.0871,147.7684 737.5641,135.6664 771.9591,135.6664 C805.0791,135.6664 827.3721,149.6794 841.3851,180.2524 C877.6891,147.1314 903.8041,135.6664 939.4731,135.6664 C968.1341,135.6664 989.7901,147.1314 1000.6181,167.5134 C1009.5351,185.3474 1012.0821,201.9084 1012.0821,240.7614 L1012.0821,450.3114 C1012.0821,459.8654 1010.8081,461.1394 1001.2551,461.1394 L942.6571,461.1394 C933.1021,461.1394 931.8291,459.8654 931.8291,450.3114 L931.8291,248.4044 C931.8291,212.7354 924.1851,199.3604 903.1671,199.3604 C885.9701,199.3604 871.3201,207.0034 848.3911,228.0224 L848.3911,450.3114 C848.3911,459.8654 847.1171,461.1394 837.5631,461.1394 L779.6021,461.1394 C770.0481,461.1394 768.7741,459.8654 768.7741,450.3114 L768.7741,254.7734 C768.7741,212.7354 762.4051,200.6344 739.4751,200.6344 C722.9151,200.6344 706.3541,208.9144 684.6991,228.0224 L684.6991,450.3114 C684.6991,459.8654 683.4261,461.1394 673.8711,461.1394" id="Fill-6"></path>
      <path d="M1173.2295,471.967 C1136.2875,471.967 1110.8105,456.044 1100.6195,426.108 C1095.5235,411.459 1094.8865,403.816 1094.8865,348.403 L1094.8865,24.841 C1094.8865,17.835 1098.0715,14.013 1104.4405,12.739 L1161.7645,1.274 C1168.1335,0 1168.1335,0 1169.4085,0 C1173.8665,0 1175.7775,3.185 1175.7775,10.828 L1175.7775,342.67 C1175.7775,378.338 1175.7775,379.612 1177.0505,384.708 C1179.5985,393.625 1184.0575,397.446 1192.9745,397.446 C1199.9805,397.446 1205.7125,396.172 1213.9935,393.625 C1215.9045,392.988 1217.8145,392.988 1218.4525,392.988 C1221.0005,392.988 1222.9105,394.261 1223.5465,396.809 L1236.2865,449.038 L1236.9225,451.585 C1237.5595,452.859 1237.5595,453.496 1237.5595,454.133 C1237.5595,462.413 1203.8025,471.967 1173.2295,471.967" id="Fill-8"></path>
    </g>
  </g>
</svg>