<?xml version="1.0" encoding="UTF-8"?>
<svg width="296px" height="297px" viewBox="0 0 296 297" version="1.1" xmlns="http://www.w3.org/2000/svg" xmlns:xlink="http://www.w3.org/1999/xlink">
    <title>missing-user-image</title>
    <g id="Page-1" stroke="none" stroke-width="1" fill="none" fill-rule="evenodd">
        <g id="missing-user-image">
            <rect id="Rectangle" fill="#1F2427" x="0" y="0" width="296" height="296"></rect>
            <path d="M85.0172424,16.9725723 L101.44342,16.9725723 L111.063583,20.5977783 L111.063583,24.7431717 L88.8210602,24.7431717 L88.8210602,103.546585 L91.6599121,103.546585 L91.6599121,75.9435272 L101.44342,75.9435272 C105.249776,61.9692535 110.583954,52.0108439 117.445953,46.0682983 C124.307953,40.1257528 135.659302,37.15448 151.5,37.15448 C164.59786,37.6116842 175.15567,41.0920766 183.173431,47.5956573 C191.191193,54.0992381 196.327423,63.548528 198.582123,75.9435272 L198.582123,84.8188019 L201.338318,86.7646179 L201.338318,89.4972839 L206.598083,89.4972839 L206.598083,93.7790451 L208.61792,96.2669525 L208.61792,139 L215.14444,127.556717 L213.830658,122.984787 L219.920166,115.501282 L219.920166,62.1359863 L236.181396,35.5689049 L245.3237,62.1359863 L230.447357,113.652664 L233.996552,122.984787 L233.996552,127.556717 L232.306549,129.548431 L232.306549,169.983627 L227.938263,175.034653 C237.367571,181.625236 244.102821,187.181719 248.144012,191.704102 C252.185204,196.226484 256.184532,202.682762 260.141998,211.072937 L264.72934,211.072937 L277.426178,224.742447 C277.576418,227.886577 277.576418,230.316167 277.426178,232.031219 C277.275938,233.746272 276.84863,236.194554 276.144257,239.376068 L279.381805,242.972641 C279.619898,248.946329 279.619898,253.821924 279.381805,257.599426 C279.143713,261.376928 275.911871,274.17712 269.686279,296 L20.3902588,296 L28.0018311,259.878601 L24.6993256,259.878601 C30.7067011,249.773662 35.3276982,242.420502 38.5623169,237.819122 C41.7969356,233.217742 46.7745026,226.916544 53.495018,218.915527 C56.4367343,212.65999 58.747182,207.97544 60.4263611,204.861877 C62.1055402,201.748315 63.981771,198.669854 66.0550537,195.626495 L68.4575195,193.436081 L76.4473877,193.436081 L88.8210602,184.471115 L88.8210602,179.538101 L96.6243134,177.117371 L98.1411133,179.538101 L108.365173,173.474792 L108.365173,166.816322 C107.526796,164.557458 106.657198,162.996771 105.756378,162.134262 C104.855559,161.271753 103.417906,160.623313 101.44342,160.188942 L91.6599121,153.96682 L91.6599121,108.346237 L85.0172424,108.346237 L85.0172424,16.9725723 Z" id="Path" stroke="#979797" fill="#FFFFFF"></path>
            <path d="M102.876129,98.760849 C123.71835,104.185206 139.389752,106.897385 149.890335,106.897385 C160.390918,106.897385 176.06232,104.185206 196.904541,98.760849 L196.904541,102.806961 C192.203282,106.990848 187.612553,109.888457 183.132355,111.499786 C178.652156,113.111116 171.098222,114.581407 160.470551,115.91066 L160.470551,183.612656 L139.129807,183.612656 L139.129807,115.91066 C129.783268,114.325148 122.988291,112.854857 118.744873,111.499786 C114.501455,110.144716 109.211874,107.755988 102.876129,104.333603 L102.876129,98.760849 Z" id="Path-2" stroke="#979797" fill="#1F2427"></path>
            <line x1="21.1507893" y1="296" x2="268.997604" y2="296" id="Path-3" stroke="#FFFFFF"></line>
        </g>
    </g>
</svg>