<?xml version="1.0" encoding="UTF-8"?>
<svg aria-hidden="true" focusable="false" data-prefix="fad" data-icon="terminal" class="svg-inline--fa fa-terminal fa-w-20" role="img" xmlns="http://www.w3.org/2000/svg" viewBox="0 0 16 16">
<g id="fa-group">
<path style=" stroke:none;fill-rule:nonzero;fill:rgb(11.372549%,11.372549%,10.588235%);fill-opacity:1;" d="M 12.933594 13.457031 L 2.90625 13.457031 C 1.597656 13.457031 0.535156 12.394531 0.535156 11.085938 L 0.535156 4.753906 C 0.535156 3.449219 1.597656 2.382812 2.90625 2.382812 L 12.933594 2.382812 C 14.242188 2.382812 15.304688 3.449219 15.304688 4.753906 L 15.304688 11.085938 C 15.304688 12.394531 14.242188 13.457031 12.933594 13.457031 Z M 2.90625 3.078125 C 1.980469 3.078125 1.230469 3.828125 1.230469 4.753906 L 1.230469 11.085938 C 1.230469 12.011719 1.980469 12.761719 2.90625 12.761719 L 12.933594 12.761719 C 13.859375 12.761719 14.613281 12.011719 14.613281 11.085938 L 14.613281 4.753906 C 14.613281 3.828125 13.859375 3.078125 12.933594 3.078125 Z M 2.90625 3.078125 "/>
<path style=" stroke:none;fill-rule:nonzero;fill:rgb(11.372549%,11.372549%,10.588235%);fill-opacity:1;" d="M 2.347656 4.789062 C 4.121094 6.515625 5.894531 8.242188 7.667969 9.972656 C 7.996094 10.292969 8.503906 9.789062 8.171875 9.464844 C 6.402344 7.738281 4.628906 6.007812 2.855469 4.28125 C 2.523438 3.960938 2.015625 4.464844 2.347656 4.789062 Z M 2.347656 4.789062 "/>
<path style=" stroke:none;fill-rule:nonzero;fill:rgb(11.372549%,11.372549%,10.588235%);fill-opacity:1;" d="M 8.171875 9.972656 C 9.945312 8.242188 11.71875 6.515625 13.492188 4.789062 C 13.824219 4.464844 13.316406 3.960938 12.984375 4.28125 C 11.214844 6.007812 9.441406 7.738281 7.667969 9.464844 C 7.335938 9.789062 7.84375 10.292969 8.171875 9.972656 Z M 8.171875 9.972656 "/>
<path style=" stroke:none;fill-rule:nonzero;fill:rgb(11.372549%,11.372549%,10.588235%);fill-opacity:1;" d="M 13.472656 11.195312 C 12.292969 10.074219 11.113281 8.957031 9.933594 7.839844 C 9.597656 7.519531 9.089844 8.027344 9.425781 8.34375 C 10.605469 9.464844 11.785156 10.582031 12.964844 11.703125 C 13.300781 12.019531 13.808594 11.511719 13.472656 11.195312 Z M 13.472656 11.195312 "/>
<path style=" stroke:none;fill-rule:nonzero;fill:rgb(11.372549%,11.372549%,10.588235%);fill-opacity:1;" d="M 2.90625 11.703125 C 4.085938 10.582031 5.265625 9.464844 6.445312 8.34375 C 6.78125 8.027344 6.273438 7.519531 5.9375 7.835938 C 4.757812 8.957031 3.578125 10.074219 2.398438 11.195312 C 2.0625 11.511719 2.570312 12.019531 2.90625 11.703125 Z M 2.90625 11.703125 "/>
</g>
</svg>
