<?xml version="1.0" encoding="UTF-8"?>
<svg aria-hidden="true" focusable="false" data-prefix="fad" data-icon="terminal" class="svg-inline--fa fa-terminal fa-w-20" role="img" xmlns="http://www.w3.org/2000/svg" viewBox="0 0 16 16">
<g id="fa-group">
<path style=" stroke:none;fill-rule:nonzero;fill:rgb(0%,0%,0%);fill-opacity:1;" d="M 8 4 C 5.789062 4 4 5.789062 4 8 C 4 10.210938 5.789062 12 8 12 C 10.210938 12 12 10.210938 12 8 C 12 5.789062 10.210938 4 8 4 Z M 8 10.933594 C 6.378906 10.933594 5.066406 9.621094 5.066406 8 C 5.066406 6.378906 6.378906 5.066406 8 5.066406 C 9.621094 5.066406 10.933594 6.378906 10.933594 8 C 10.933594 9.621094 9.621094 10.933594 8 10.933594 Z M 9.8125 7.011719 C 9.8125 7.46875 9.441406 7.839844 8.988281 7.839844 C 8.53125 7.839844 8.160156 7.46875 8.160156 7.011719 C 8.160156 6.558594 8.53125 6.1875 8.988281 6.1875 C 9.441406 6.191406 9.808594 6.558594 9.8125 7.011719 Z M 9.8125 8.988281 C 9.8125 9.441406 9.441406 9.8125 8.988281 9.8125 C 8.53125 9.8125 8.160156 9.441406 8.160156 8.988281 C 8.160156 8.53125 8.53125 8.160156 8.988281 8.160156 C 9.441406 8.164062 9.808594 8.53125 9.8125 8.988281 Z M 7.839844 8.988281 C 7.839844 9.441406 7.46875 9.8125 7.011719 9.8125 C 6.558594 9.8125 6.1875 9.441406 6.1875 8.988281 C 6.1875 8.53125 6.558594 8.160156 7.011719 8.160156 C 7.46875 8.164062 7.835938 8.53125 7.839844 8.988281 Z M 7.839844 7.011719 C 7.839844 7.46875 7.46875 7.839844 7.011719 7.839844 C 6.558594 7.839844 6.1875 7.46875 6.1875 7.011719 C 6.1875 6.558594 6.558594 6.1875 7.011719 6.1875 C 7.46875 6.191406 7.835938 6.558594 7.839844 7.011719 Z M 7.839844 7.011719 "/>
</g>
</svg>
